<svg width="130" height="162" viewBox="0 0 130 162" fill="none" xmlns="http://www.w3.org/2000/svg">
<mask id="mask0_69_31" style="mask-type:luminance" maskUnits="userSpaceOnUse" x="0" y="0" width="130" height="132">
<path d="M0 0H129.36V132H0V0Z" fill="white"/>
</mask>
<g mask="url(#mask0_69_31)">
<path d="M20.3397 109.763C19.2844 109.371 18.095 109.237 17.0397 109.237C16.7716 110.423 16.7716 111.609 17.0397 112.657C17.435 114.235 18.2256 115.82 19.415 116.999C20.6009 118.185 22.0516 118.975 23.5056 119.501C24.695 119.762 25.8809 119.9 27.0703 119.762C27.0703 119.106 27.0703 118.446 27.0703 117.923C26.9397 117.136 26.675 116.476 26.5444 115.689C26.2762 115.16 25.8809 114.503 25.6197 113.843C25.2209 113.317 24.8256 112.788 24.2962 112.265C23.2444 111.079 21.7903 110.292 20.3397 109.763ZM26.5444 42.7797H27.0703C28.9197 42.5116 30.7691 41.7278 32.0856 40.5384C33.5362 39.4866 34.7256 37.9088 35.3856 36.2003C36.1797 34.3544 36.3103 32.5119 36.0491 30.6728C35.9116 30.0128 35.7809 29.3563 35.5197 28.5622C35.3856 28.8269 35.1244 29.095 34.9869 29.3563C32.6116 32.3813 28.1256 34.0897 26.8056 37.7781C26.1456 39.3559 26.015 41.0678 26.5444 42.7797ZM38.2903 57.7809C38.9503 57.7809 39.7409 57.7809 40.4044 57.6503C42.9103 57.3822 45.4162 56.4644 47.5337 54.8831C49.6409 53.1713 51.2291 51.0709 52.1503 48.6991C52.5456 47.5166 52.9444 46.2 53.075 44.8834C52.6797 45.1447 52.415 45.2822 52.1503 45.4059C46.8703 48.3003 40.1362 47.5166 38.4244 55.1478C38.2903 56.0691 38.1597 56.8597 38.2903 57.7809ZM38.0291 10.4053C37.235 11.8525 36.575 13.5644 36.4444 15.2728C45.4162 17.5106 47.3962 9.48063 52.6831 5.40375L52.9444 5.26969C51.8891 4.87438 50.8337 4.60969 49.7716 4.60969C47.5337 4.34844 45.155 4.74375 43.0409 5.79907C40.9303 6.85094 39.215 8.42875 38.0291 10.4053ZM41.9856 116.212C42.1162 116.346 42.2537 116.476 42.3844 116.476C43.5703 115.16 44.3609 113.448 44.6291 111.739C45.0244 108.711 43.175 105.16 41.855 102.259C41.1916 102.919 40.4044 104.5 40.0056 105.291C39.0809 107.13 38.8162 109.103 39.215 111.079C39.6103 113.187 40.535 114.895 41.9856 116.212ZM23.6397 95.4216H23.7703C23.2444 93.3144 22.0516 91.4719 20.6009 90.1553C16.9091 86.8656 13.6056 88.0481 9.51155 86.4703C9.38093 86.4703 9.24687 86.4703 8.98562 86.3397C9.38093 87.7869 9.77968 89.1034 10.5669 90.1519C11.8903 92.2591 13.8703 93.9709 16.2456 95.0228C18.6209 95.9475 21.2644 96.0781 23.6397 95.4216ZM109.048 109.763C110.103 109.371 111.292 109.237 112.348 109.237C112.612 110.423 112.612 111.609 112.348 112.657C111.952 114.235 111.158 115.82 109.972 116.999C108.783 118.185 107.329 118.975 105.878 119.501C104.692 119.762 103.503 119.9 102.317 119.762C102.317 119.106 102.317 118.446 102.317 117.923C102.448 117.136 102.712 116.476 102.974 115.689C103.108 115.16 103.503 114.503 103.768 113.843C104.163 113.317 104.562 112.788 105.088 112.265C106.143 111.079 107.594 110.292 109.048 109.763ZM102.843 42.7797H102.317C100.468 42.5116 98.6184 41.7278 97.2984 40.5384C95.8444 39.4866 94.6584 37.9088 93.9984 36.2003C93.2078 34.3544 93.0772 32.5119 93.3384 30.6728C93.4691 30.0128 93.6031 29.3563 93.8678 28.5622C93.9984 28.8269 94.2631 29.095 94.3937 29.3563C96.7691 32.3813 101.262 34.0897 102.578 37.7781C103.242 39.3559 103.372 41.0678 102.843 42.7797ZM91.0937 57.7809C90.4337 57.7809 89.6397 57.7809 88.9831 57.6503C86.4772 57.3822 83.9644 56.4644 81.8537 54.8831C79.7431 53.1713 78.1584 51.0709 77.2337 48.6991C76.835 47.5166 76.4431 46.2 76.4431 44.8834C76.7044 45.1447 76.9725 45.2822 77.2337 45.4059C82.5137 48.3003 89.2478 47.5166 90.9631 55.1478C91.0937 56.0691 91.2278 56.8597 91.0937 57.7809ZM91.3584 10.4053C92.1525 11.8525 92.8125 13.5644 92.9431 15.2728C83.9644 17.5106 81.9844 9.48063 76.7044 5.40375L76.4431 5.26969C77.4984 4.87438 78.5537 4.60969 79.6091 4.60969C81.8537 4.34844 84.2291 4.74375 86.3397 5.79907C88.4537 6.85094 90.1691 8.42875 91.3584 10.4053ZM87.4019 116.212C87.2644 116.346 87.1337 116.476 87.0031 116.476C85.8137 115.16 85.0231 113.448 84.7584 111.739C84.3631 108.711 86.2091 105.16 87.5325 102.259C88.1891 102.919 88.9831 104.5 89.3784 105.291C90.3031 107.13 90.5644 109.103 90.1691 111.079C89.7772 113.187 88.8525 114.895 87.4019 116.212ZM105.748 95.4216H105.617C106.143 93.3144 107.329 91.4719 108.78 90.1553C112.478 86.8656 115.778 88.0481 119.872 86.4703C120.003 86.4703 120.134 86.4703 120.402 86.3397C120.003 87.7869 119.608 89.1034 118.817 90.1519C117.497 92.2591 115.517 93.9709 113.142 95.0228C110.767 95.9475 108.123 96.0781 105.748 95.4216ZM98.2231 121.079C97.0372 122.925 95.4525 124.503 93.7337 125.558C91.6197 126.871 89.3784 127.528 86.8725 127.662C84.4972 127.792 82.1219 127.267 80.0044 126.215C77.8937 125.159 76.0478 123.582 74.7244 121.478L74.5937 121.347C76.9725 122.657 79.7431 123.186 82.5137 122.925C85.5525 122.526 88.1891 121.21 90.3031 119.371C92.2831 117.397 93.8678 114.764 94.3937 111.87C94.9197 108.972 94.5278 106.078 93.2078 103.445C91.3584 99.5019 88.7184 98.0478 85.0231 96.2088C84.7584 103.445 79.6091 104.5 80.6678 112.265C80.9291 114.503 81.8537 116.607 83.1772 118.446C82.7784 118.583 82.3831 118.583 82.1219 118.714C80.0044 118.845 78.0278 118.446 76.3091 117.528C74.7244 116.607 73.4044 115.16 72.4797 113.448C72.0878 109.502 71.9537 101.341 72.8784 97.7866C75.3844 89.2341 87.4019 88.9728 93.9984 93.0497C97.5631 95.2875 100.207 98.3159 104.692 99.5019C107.992 100.42 111.423 100.155 114.723 98.8419C118.027 97.5253 120.663 95.2875 122.382 92.3897C124.228 89.6259 125.022 86.2091 124.757 82.6547L124.358 79.1003L121.457 81.0734C120.532 81.73 119.477 82.1288 118.422 82.5206C113.668 84.2325 110.897 82.6547 106.012 86.9963C104.032 88.7047 102.578 90.9425 101.788 93.5756C100.207 92.6544 96.7691 88.4434 88.3231 86.4703C88.4572 86.3397 88.7184 86.2091 88.8525 86.0716C90.9631 84.1019 92.8125 81.8606 94.2631 79.4956C94.7891 78.4438 94.3937 77.1272 93.4691 76.6013C92.4137 75.9413 91.0937 76.3366 90.5644 77.3884C89.3784 79.365 87.7937 81.3381 86.0784 82.9159C81.4584 86.8656 77.2337 86.7316 72.8784 90.5506C72.7478 90.6813 72.4797 90.8119 72.3491 90.9425C71.8231 84.6244 72.8784 77.7872 78.1584 73.7034C81.7231 70.6784 86.6078 69.8844 91.6197 71.2044C93.9984 71.7303 96.2431 72.7856 98.2231 74.2328L98.3572 74.3634C103.503 77.3884 108.254 79.1038 112.612 79.1038C117.102 79.1038 121.058 77.5191 124.627 74.2328L124.757 74.0988C126.607 72.1256 127.927 69.6231 128.717 66.99C129.377 64.3638 129.377 61.5931 128.851 58.8363C128.188 56.0691 126.868 53.57 125.152 51.4628C123.303 49.4931 121.058 47.7778 118.552 46.86C117.628 46.3306 116.572 45.9388 115.383 45.5434C117.102 42.7797 118.027 39.7547 118.288 36.7228C118.552 32.6459 117.628 28.435 115.517 24.7466C113.272 21.065 110.103 18.2978 106.274 16.5859C103.503 15.2728 100.337 14.6163 97.1678 14.7469C96.9066 12.375 96.1125 10.1372 94.9197 8.16407C93.3384 5.665 91.0937 3.43063 88.1891 1.98344C85.415 0.666879 82.2525 0.00687872 79.2137 0.398754C76.835 0.536254 73.0091 1.85282 69.575 5.665C75.6491 7.77219 76.4431 13.4303 81.7231 17.2459C82.7784 18.0366 83.8337 18.6966 85.0231 19.2191C84.3631 19.6178 83.8337 20.1403 83.3078 20.7969C80.4031 23.6981 78.4231 27.3797 77.6291 31.5906C77.4984 32.7731 78.1584 33.8284 79.3478 34.0897C80.5337 34.2238 81.5891 33.5672 81.8537 32.3813C82.3831 28.9575 83.9644 26.0631 86.2091 23.6981C88.5878 21.4569 91.4891 19.7484 94.9231 19.2191C98.2231 18.5625 101.657 18.9578 104.562 20.405C107.597 21.7216 110.103 23.9594 111.822 26.8538C113.534 29.7516 114.328 33.1684 114.067 36.3275C113.802 39.2253 112.877 41.9891 111.158 44.3575C109.972 44.0963 108.522 43.6975 107.068 43.4363C107.597 41.0678 107.467 38.5653 106.672 36.3275C104.954 31.7213 96.2431 28.435 93.2078 21.8522L92.2831 23.0381C90.5644 25.1453 89.5091 27.5103 89.1137 30.0128C88.7184 32.6459 88.9831 35.2756 90.0384 37.6441C90.9631 40.1466 92.5444 42.2503 94.6584 43.8281C96.6384 45.4059 99.0137 46.5988 101.657 46.86C105.349 47.3825 108.388 48.0391 111.028 48.5684C113.403 49.225 115.383 49.885 116.703 50.5416L116.834 50.6722C118.817 51.4628 120.532 52.6488 121.852 54.2266C123.172 55.8044 124.228 57.6503 124.627 59.7541C125.152 61.8613 125.152 63.965 124.627 65.9416C124.097 67.9147 123.038 69.6231 121.588 71.2009C119.212 73.4388 116.308 74.7553 113.272 74.8894C113.534 74.6247 113.668 74.4941 113.798 74.2328C115.778 72.2563 116.971 69.4925 116.971 66.4675C116.834 63.4425 115.648 60.6753 113.668 58.6988C111.554 56.4644 108.783 55.4125 105.748 55.1478C101.657 54.7525 99.0137 55.6738 95.3184 56.8597C95.3184 56.0691 95.3184 55.1478 95.0572 54.3606C92.9431 44.6222 85.9478 45.4059 79.2103 41.7278C78.0244 41.0678 76.9725 40.2772 75.9172 39.2253L73.0091 36.5922L72.3491 40.4113C71.8231 43.8281 72.0878 47.2519 73.4044 50.2769C74.5937 53.3053 76.5737 56.0691 79.3478 58.1763C81.9844 60.2834 85.2844 61.4694 88.5844 61.8613C90.0384 61.9919 91.6197 61.9919 93.2078 61.8613C97.8244 61.2013 100.207 58.8363 105.349 59.3588C107.463 59.4928 109.312 60.1528 110.629 61.5931C111.952 62.9097 112.612 64.625 112.743 66.4675C112.743 68.3066 111.952 70.1525 110.767 71.3384C109.574 72.6516 108.123 73.4388 106.408 73.5728C104.562 72.9163 102.578 71.9916 100.598 70.6784C98.2197 69.0972 95.4525 67.7806 92.6784 67.1275C87.9278 65.8041 84.6278 65.8041 80.4031 67.5194C80.4031 66.7288 80.4031 65.8041 80.2725 65.0203C79.8737 63.3084 79.2103 61.8613 78.155 60.5447C77.0997 59.2316 75.7797 58.3069 74.1984 57.5163C73.1431 57.1209 71.9503 57.5163 71.4244 58.5716C71.0291 59.6234 71.4244 60.9366 72.4797 61.4659C73.4044 61.8613 74.1984 62.3872 74.855 63.1778C79.0797 68.4372 73.4044 71.7303 71.1631 75.2813C67.3337 81.5994 67.595 89.6259 68.7878 96.7347C67.595 101.341 67.7256 110.289 68.3891 115.16C69.3137 121.21 71.555 126.737 78.0244 129.9C80.7984 131.347 83.9644 132.003 87.1337 131.873C90.3031 131.739 93.3384 130.817 95.9819 129.24C98.0891 127.792 99.9384 126.081 101.392 123.843C103.238 124.111 105.218 123.973 106.937 123.582C109.178 122.925 111.423 121.608 113.004 119.9C114.723 118.054 115.909 115.947 116.442 113.582C116.968 111.341 116.834 108.842 116.047 106.607L115.648 105.291L114.328 105.16C112.083 104.761 109.842 105.023 107.728 105.683C105.617 106.47 103.637 107.656 102.049 109.371C101.392 110.028 100.732 110.818 100.207 111.736C99.6737 112.527 99.2819 113.444 98.8831 114.369C98.6184 115.29 98.3572 116.346 98.2231 117.394C98.0891 118.446 98.0891 119.501 98.0891 120.557C98.0925 120.687 98.2231 120.948 98.2231 121.079ZM79.3478 20.405C79.3478 18.5591 77.8972 17.1188 76.1784 17.1188C74.3291 17.1188 72.8784 18.5591 72.8784 20.405C72.8784 22.2475 74.3291 23.6947 76.1784 23.6947C77.8972 23.6981 79.3478 22.2475 79.3478 20.405ZM56.5091 20.405C56.5091 18.5591 55.0584 17.1188 53.2091 17.1188C51.4903 17.1188 50.0397 18.5591 50.0397 20.405C50.0397 22.2475 51.4903 23.6947 53.2091 23.6947C55.0584 23.6981 56.5091 22.2475 56.5091 20.405ZM101.523 84.4938C101.523 82.6547 100.069 81.2075 98.2231 81.2075C96.3737 81.2075 94.9197 82.6547 94.9197 84.4938C94.9197 86.3397 96.3737 87.7869 98.2231 87.7869C100.069 87.7869 101.523 86.3397 101.523 84.4938ZM34.4609 84.4938C34.4609 82.6547 33.0103 81.2075 31.1609 81.2075C29.315 81.2075 27.8644 82.6547 27.8644 84.4938C27.8644 86.3397 29.315 87.7869 31.1609 87.7869C33.0103 87.7869 34.4609 86.3397 34.4609 84.4938ZM8.32562 42.6491C8.32562 40.8031 6.87155 39.3559 5.02562 39.3559C3.17624 39.3559 1.72562 40.8031 1.72562 42.6491C1.72562 44.4881 3.17624 45.9388 5.02562 45.9388C6.87155 45.9388 8.32562 44.4881 8.32562 42.6491ZM127.662 42.6491C127.662 40.8031 126.208 39.3559 124.358 39.3559C122.512 39.3559 121.058 40.8031 121.058 42.6491C121.058 44.4881 122.512 45.9388 124.358 45.9388C126.208 45.9388 127.662 44.4881 127.662 42.6491ZM106.803 8.55938C106.803 6.72032 105.349 5.26969 103.503 5.26969C101.657 5.26969 100.207 6.72032 100.207 8.55938C100.207 10.4053 101.657 11.8525 103.503 11.8525C105.349 11.8525 106.803 10.4053 106.803 8.55938ZM29.315 8.55938C29.315 6.72032 27.7303 5.26969 25.8809 5.26969C24.1656 5.26969 22.5809 6.72032 22.5809 8.55938C22.5809 10.4053 24.1656 11.8525 25.8809 11.8525C27.7303 11.8525 29.315 10.4053 29.315 8.55938ZM33.1444 103.575C33.1444 101.736 31.5562 100.289 29.7069 100.289C27.995 100.289 26.4069 101.736 26.4069 103.575C26.4069 105.421 27.995 106.868 29.7069 106.868C31.5562 106.868 33.1444 105.421 33.1444 103.575ZM102.974 103.575C102.974 101.736 101.392 100.289 99.6737 100.289C97.8244 100.289 96.2431 101.736 96.2431 103.575C96.2431 105.421 97.8244 106.868 99.6737 106.868C101.392 106.868 102.974 105.421 102.974 103.575ZM125.812 102.788C125.812 100.949 124.358 99.5019 122.512 99.5019C120.663 99.5019 119.212 100.949 119.212 102.788C119.212 104.631 120.663 106.078 122.512 106.078C124.358 106.078 125.812 104.631 125.812 102.788ZM10.1716 102.788C10.1716 100.949 8.72093 99.5019 6.87155 99.5019C5.02562 99.5019 3.57499 100.949 3.57499 102.788C3.57499 104.631 5.02562 106.078 6.87155 106.078C8.72093 106.078 10.1716 104.631 10.1716 102.788ZM31.1609 121.079C32.3503 122.925 33.935 124.503 35.6503 125.558C37.7609 126.871 40.0056 127.528 42.515 127.662C44.8903 127.792 47.2656 127.267 49.3797 126.215C51.4903 125.159 53.3397 123.582 54.6597 121.478L54.7903 121.347C52.415 122.657 49.6409 123.186 46.8703 122.925C43.835 122.526 41.1916 121.21 39.0809 119.371C37.1009 117.397 35.5197 114.764 34.9869 111.87C34.4609 108.972 34.8562 106.078 36.1797 103.445C38.1597 99.5019 40.6656 98.0478 44.3609 96.2088C44.6291 103.445 49.7716 104.5 48.7162 112.265C48.455 114.503 47.5303 116.607 46.2103 118.446C46.6091 118.583 47.0044 118.583 47.2656 118.714C49.3797 118.845 51.3597 118.446 53.075 117.528C54.6597 116.607 55.9762 115.16 56.9009 113.448C57.2997 109.502 57.4337 101.341 56.5091 97.7866C53.9962 89.2341 41.9856 88.9728 35.3856 93.0497C31.8244 95.2875 29.1809 98.3159 24.695 99.5019C21.395 100.42 17.9609 100.155 14.6609 98.8419C11.3609 97.5253 8.71749 95.2875 7.00562 92.3897C5.15624 89.6259 4.36218 86.2091 4.6303 82.6547L5.02562 79.1003L7.9303 81.0734C8.85499 81.73 9.9103 82.1288 10.9656 82.5206C15.7162 84.2325 18.4903 82.6547 23.3716 86.9963C25.3516 88.7047 26.8056 90.9425 27.5997 93.5756C29.315 92.6544 32.6116 88.4434 41.0609 86.4703C40.9303 86.3397 40.6656 86.2091 40.535 86.0716C38.4244 84.1019 36.575 81.8606 35.1244 79.4956C34.595 78.4438 34.9869 77.1272 35.9116 76.6013C36.9737 75.9413 38.2903 76.3366 38.8162 77.3884C40.0056 79.365 41.5903 81.3381 43.3056 82.9159C47.9291 86.8656 52.1503 86.7316 56.5091 90.5506C56.6397 90.6813 56.9009 90.8119 57.0384 90.9425C57.5644 84.6244 56.5091 77.7872 51.2291 73.7034C47.6609 70.6784 42.7797 69.8844 37.7609 71.2044C35.3856 71.7303 33.1444 72.7856 31.1609 74.2328L31.0303 74.3634C25.8809 77.3884 21.1269 79.1038 16.7716 79.1038C12.2856 79.1038 8.32562 77.5191 4.76093 74.2328L4.6303 74.0988C2.78093 72.1256 1.46093 69.6231 0.666866 66.99C0.00686599 64.3638 0.00686559 61.5931 0.536241 58.8363C1.19968 56.0691 2.51624 53.57 4.23155 51.4628C6.08093 49.4931 8.32562 47.7778 10.835 46.86C11.7597 46.3306 12.8116 45.9388 13.9975 45.5434C12.2856 42.7797 11.3609 39.7547 11.0962 36.7228C10.835 32.6459 11.7562 28.435 13.8669 24.7466C16.115 21.065 19.2844 18.2978 23.1103 16.5859C25.8809 15.2728 29.0503 14.6163 32.2197 14.7469C32.4809 12.375 33.275 10.1372 34.4609 8.16407C36.0491 5.665 38.2903 3.43063 41.1916 1.98344C43.9656 0.666879 47.135 0.00687872 50.1703 0.398754C52.5456 0.536254 56.375 1.85282 59.8091 5.665C53.735 7.77219 52.9444 13.4303 47.6644 17.2459C46.6091 18.0366 45.5537 18.6966 44.3609 19.2191C45.0244 19.6178 45.5537 20.1403 46.0797 20.7969C48.9844 23.6981 50.9644 27.3797 51.7584 31.5906C51.8891 32.7731 51.2291 33.8284 50.0397 34.0897C48.8537 34.2238 47.795 33.5672 47.5337 32.3813C47.0044 28.9575 45.4197 26.0631 43.1784 23.6981C40.7997 21.4569 37.8984 19.7484 34.4609 19.2191C31.1609 18.5625 27.7303 18.9578 24.8256 20.405C21.7903 21.7216 19.2844 23.9594 17.5656 26.8538C15.8469 29.7516 15.0597 33.1684 15.3209 36.3275C15.5856 39.2253 16.5103 41.9891 18.2256 44.3575C19.415 44.0963 20.8656 43.6975 22.3197 43.4363C21.7903 41.0678 21.9209 38.5653 22.715 36.3275C24.4303 31.7213 33.1444 28.435 36.1797 21.8522L37.1044 23.0381C38.8162 25.1453 39.875 27.5103 40.2737 30.0128C40.6656 32.6459 40.4044 35.2756 39.3491 37.6441C38.4244 40.1466 36.8362 42.2503 34.7256 43.8281C32.7491 45.4059 30.3703 46.5988 27.7303 46.86C24.0316 47.3825 20.9962 48.0391 18.3597 48.5684C15.9844 49.225 14.0009 49.885 12.6844 50.5416L12.5469 50.6722C10.5669 51.4628 8.85499 52.6488 7.53499 54.2266C6.21155 55.8044 5.15624 57.6503 4.76093 59.7541C4.23499 61.8613 4.23499 63.965 4.76093 65.9416C5.28687 67.9147 6.34218 69.6231 7.79624 71.2009C10.1716 73.4388 13.0797 74.7553 16.115 74.8894C15.8469 74.6247 15.7162 74.4941 15.5856 74.2328C13.6091 72.2563 12.4162 69.4925 12.4162 66.4675C12.5469 63.4425 13.7397 60.6753 15.7162 58.6988C17.8269 56.4644 20.6009 55.4125 23.6397 55.1478C27.7303 54.7525 30.5009 55.6738 34.0691 56.8597C34.0691 56.0691 34.1997 55.1478 34.3303 54.3606C36.4444 44.6222 43.4397 45.4059 50.1703 41.7278C51.3597 41.0678 52.415 40.2772 53.4703 39.2253L56.375 36.5922L57.0384 40.4113C57.5644 43.8281 57.2997 47.2519 56.1137 50.2769C54.7903 53.3053 52.8137 56.0691 50.0397 58.1763C47.3962 60.2834 44.0997 61.4694 40.7997 61.8613C39.3491 61.9919 37.7609 61.9919 36.1797 61.8613C31.5562 61.2013 29.1809 58.8363 24.0316 59.3588C21.9209 59.4928 20.0716 60.1528 18.7516 61.5931C17.435 62.9097 16.7716 64.625 16.6409 66.4675C16.6409 68.3066 17.435 70.1525 18.6209 71.3384C19.8103 72.6516 21.2644 73.4388 22.9762 73.5728C24.8256 72.9163 26.8056 71.9916 28.7856 70.6784C31.1609 69.0972 33.935 67.7806 36.7056 67.1275C41.4597 65.8041 44.7597 65.8041 48.9844 67.5194C48.9844 66.7288 48.9844 65.8041 49.115 65.0203C49.5103 63.3084 50.1703 61.8613 51.2291 60.5447C52.2844 59.2316 53.6044 58.3069 55.1891 57.5163C56.2444 57.1209 57.4337 57.5163 57.9597 58.5716C58.355 59.6234 57.9597 60.9366 56.9009 61.4659C55.9762 61.8613 55.1891 62.3872 54.5256 63.1778C50.3044 68.4372 55.9762 71.7303 58.2209 75.2813C62.0503 81.5994 61.9197 89.6259 60.5997 96.7347C61.7891 101.341 61.655 110.289 60.995 115.16C60.0703 121.21 57.8256 126.737 51.3597 129.9C48.5856 131.347 45.4162 132.003 42.2503 131.873C39.0809 131.739 36.0491 130.817 33.4056 129.24C31.295 127.792 29.4456 126.081 27.995 123.843C26.1456 124.111 24.1656 123.973 22.4503 123.582C20.2022 122.925 18.095 121.608 16.3762 119.9C14.6609 118.054 13.4716 115.947 12.9456 113.582C12.4162 111.341 12.5469 108.842 13.3409 106.607L13.7362 105.291L15.0597 105.16C17.3009 104.761 19.5456 105.023 21.6597 105.683C23.7703 106.47 25.7503 107.656 27.3316 109.371C27.995 110.028 28.655 110.818 29.1809 111.736C29.7069 112.527 30.1056 113.444 30.5009 114.369C30.7691 115.29 31.0303 116.346 31.1609 117.394C31.295 118.446 31.295 119.501 31.295 120.557C31.295 120.687 31.1609 120.948 31.1609 121.079Z" fill="#282828"/>
</g>
<path d="M34.8942 161.778H31.9104L31.8829 147.506L25.8604 159.785H23.7567L17.7342 147.506V161.778H14.7092V142.68H18.5179L24.8292 155.371L31.0992 142.68H34.8942V161.778Z" fill="#282828"/>
<path d="M43.1575 161.778H39.94V142.68H43.1575V161.778Z" fill="#282828"/>
<path d="M48.1775 142.68H56.0013C58.851 142.68 61.2057 143.584 63.0688 145.388C64.9388 147.186 65.8738 149.469 65.8738 152.236C65.8738 154.996 64.9319 157.279 63.055 159.083C61.185 160.881 58.8063 161.778 55.9188 161.778H48.1775V142.68ZM51.395 145.581V158.891H56.0838C57.9538 158.891 59.511 158.269 60.7588 157.021C62.0032 155.777 62.6288 154.188 62.6288 152.263C62.6288 150.332 61.986 148.737 60.7038 147.478C59.4182 146.213 57.8335 145.581 55.9463 145.581H51.395Z" fill="#282828"/>
<path d="M70.6369 145.375C72.5894 143.525 74.9888 142.597 77.8419 142.597C80.7019 142.597 83.1013 143.525 85.0469 145.375C86.9994 147.217 87.9756 149.507 87.9756 152.236C87.9756 154.958 86.9994 157.255 85.0469 159.125C83.1013 160.988 80.7019 161.916 77.8419 161.916C74.9888 161.916 72.5894 160.988 70.6369 159.125C68.6913 157.255 67.7219 154.958 67.7219 152.236C67.7219 149.507 68.6913 147.217 70.6369 145.375ZM77.8831 145.498C75.9856 145.498 74.3631 146.152 73.0156 147.451C71.675 148.743 71.0081 150.338 71.0081 152.236C71.0081 154.127 71.6819 155.728 73.0294 157.048C74.3838 158.368 75.9994 159.028 77.8694 159.028C79.7463 159.028 81.3516 158.368 82.6819 157.048C84.0088 155.728 84.6756 154.127 84.6756 152.236C84.6756 150.338 84.0088 148.743 82.6819 147.451C81.3516 146.152 79.7531 145.498 77.8831 145.498Z" fill="#282828"/>
<path d="M111.046 161.778H107.746L103.222 146.887L98.6297 161.778H95.3022L88.9772 142.68H92.4422L97.0759 158.203L101.682 142.707L104.858 142.68L109.492 158.203L114.098 142.68H117.426L111.046 161.778Z" fill="#282828"/>
</svg>
